<svg width="39" height="25" viewBox="0 0 39 25" fill="none" xmlns="http://www.w3.org/2000/svg">
<path d="M35.9277 0.169434H3.92773C2.22773 0.169434 0.927734 1.46943 0.927734 3.16943V21.1694C0.927734 22.8694 2.32773 24.1694 3.92773 24.1694H35.9277C37.6277 24.1694 38.9277 22.8694 38.9277 21.1694V3.16943C38.9277 1.46943 37.5277 0.169434 35.9277 0.169434Z" fill="#015FB0"/>
<path d="M35.9277 1.1687C37.0277 1.1687 37.9277 2.0687 37.9277 3.1687V21.1687C37.9277 22.2687 37.0277 23.1687 35.9277 23.1687H3.92773C2.82773 23.1687 1.92773 22.2687 1.92773 21.1687V3.1687C1.92773 2.0687 2.82773 1.1687 3.92773 1.1687H35.9277Z" fill="#006FCF"/>
<path d="M9.89873 10.4374L10.6727 12.3134H9.13073L9.89873 10.4374ZM25.9737 10.5154H22.9967V11.3424H25.9257V12.5814H23.0027V13.5034H25.9797V14.2424L28.0567 11.9974L25.9797 9.65742L25.9737 10.5154ZM11.9107 8.17543H15.9057L16.7927 10.1104L17.6147 8.16943H27.9847L29.0627 9.35942L30.1777 8.16943H34.9407L31.4217 12.0214L34.9047 15.8494H30.0707L28.9927 14.6594L27.8677 15.8494H10.9577L10.4637 14.6594H9.33373L8.83873 15.8494H4.92773L8.21373 8.16943H11.6437L11.9107 8.17543ZM20.5737 9.25342H18.3347L16.8347 12.7894L15.2097 9.25342H12.9877V14.0634L10.9277 9.25342H8.93473L6.55273 14.7654H8.10773L8.60173 13.5754H11.1977L11.6917 14.7654H14.4117V10.8304L16.1627 14.7714H17.3527L19.0927 10.8424V14.7724H20.5507L20.5747 9.25242L20.5737 9.25342ZM29.9137 12.0214L32.4447 9.25342H30.6227L29.0217 10.9794L27.4737 9.25342H21.5797V14.7714H27.3897L29.0037 13.0334L30.5517 14.7714H32.4267L29.9147 12.0214H29.9137Z" fill="white"/>
</svg>
