<svg width="39" height="25" viewBox="0 0 39 25" fill="none" xmlns="http://www.w3.org/2000/svg">
<path opacity="0.07" d="M35.9277 0.169434H3.92773C2.22773 0.169434 0.927734 1.46943 0.927734 3.16943V21.1694C0.927734 22.8694 2.32773 24.1694 3.92773 24.1694H35.9277C37.6277 24.1694 38.9277 22.8694 38.9277 21.1694V3.16943C38.9277 1.46943 37.5277 0.169434 35.9277 0.169434Z" fill="black"/>
<path d="M35.9277 1.1687C37.0277 1.1687 37.9277 2.0687 37.9277 3.1687V21.1687C37.9277 22.2687 37.0277 23.1687 35.9277 23.1687H3.92773C2.82773 23.1687 1.92773 22.2687 1.92773 21.1687V3.1687C1.92773 2.0687 2.82773 1.1687 3.92773 1.1687H35.9277Z" fill="white"/>
<path d="M19.0207 12.1457V15.3457H18.0027V7.44566H20.6937C21.0161 7.4402 21.3364 7.49853 21.6362 7.61729C21.9361 7.73605 22.2094 7.9129 22.4407 8.13767C22.6597 8.34206 22.8363 8.58762 22.9604 8.86031C23.0845 9.133 23.1536 9.42747 23.1638 9.72688C23.174 10.0263 23.1251 10.3248 23.0199 10.6053C22.9147 10.8858 22.7553 11.1428 22.5507 11.3617L22.4407 11.4777C21.9707 11.9247 21.3427 12.1677 20.6937 12.1517L19.0207 12.1457ZM19.0207 8.41367V11.2017H20.7187C21.0957 11.2137 21.4597 11.0667 21.7237 10.7977C21.9125 10.6009 22.0393 10.3528 22.0883 10.0845C22.1373 9.81618 22.1063 9.53937 21.9992 9.28851C21.8921 9.03764 21.7136 8.82381 21.4859 8.67359C21.2583 8.52338 20.9914 8.44342 20.7187 8.44367L19.0207 8.41367ZM25.5047 9.76168C26.1547 9.73168 26.7907 9.94968 27.2827 10.3747C27.7277 10.8047 27.9647 11.4047 27.9327 12.0237V15.3577H26.9637V14.5917H26.9147C26.7409 14.879 26.4952 15.116 26.2018 15.2793C25.9084 15.4426 25.5774 15.5265 25.2417 15.5227C24.6936 15.5405 24.1591 15.35 23.7457 14.9897C23.5498 14.8299 23.3928 14.6277 23.2866 14.3983C23.1804 14.169 23.1278 13.9184 23.1327 13.6657C23.1211 13.4103 23.1707 13.1558 23.2774 12.9235C23.384 12.6911 23.5445 12.4875 23.7457 12.3297C24.2391 11.9749 24.8363 11.7937 25.4437 11.8147C25.9607 11.7947 26.4737 11.9077 26.9337 12.1457V11.9377C26.937 11.7657 26.9013 11.5952 26.829 11.4391C26.7568 11.283 26.65 11.1454 26.5167 11.0367C26.249 10.7933 25.8984 10.6617 25.5367 10.6687C25.274 10.6662 25.015 10.7308 24.7842 10.8562C24.5534 10.9817 24.3584 11.1639 24.2177 11.3857L23.3227 10.8217C23.5657 10.4735 23.8938 10.1933 24.2757 10.0077C24.6577 9.82219 25.0807 9.73748 25.5047 9.76168ZM24.2177 13.6897C24.2153 13.8192 24.2447 13.9473 24.3035 14.0628C24.3623 14.1782 24.4485 14.2775 24.5547 14.3517C24.7777 14.5277 25.0547 14.6207 25.3397 14.6147C25.7687 14.6137 26.1797 14.4447 26.4857 14.1427C26.7907 13.8567 26.9637 13.4577 26.9637 13.0397C26.5787 12.766 26.1109 12.6339 25.6397 12.6657C25.2738 12.6513 24.9128 12.7543 24.6097 12.9597C24.4896 13.04 24.3911 13.1486 24.3227 13.2759C24.2544 13.4031 24.2183 13.5452 24.2177 13.6897ZM33.5037 9.93968L30.1137 17.7297H29.0657L30.3467 15.0017L28.1227 9.93968H29.2257L30.8377 13.8247L32.4067 9.93968H33.5037Z" fill="#5F6368"/>
<path d="M14.9138 11.4534C14.9138 11.1454 14.8898 10.8374 14.8408 10.5334H10.5508V12.2803H13.0018C12.9519 12.5579 12.8464 12.8226 12.6918 13.0585C12.5372 13.2944 12.3365 13.4967 12.1018 13.6532V14.7871H13.5658C14.0109 14.3564 14.3609 13.8373 14.593 13.2631C14.8252 12.6889 14.9345 12.0724 14.9138 11.4534Z" fill="#4285F4"/>
<path d="M10.5569 15.8907C11.6632 15.9211 12.7395 15.5288 13.5668 14.7936L12.1008 13.6535C11.7486 13.8794 11.3495 14.0219 10.9339 14.0703C10.5183 14.1188 10.0971 14.0718 9.70234 13.9329C9.30762 13.7941 8.94975 13.567 8.65596 13.2691C8.36216 12.9711 8.14017 12.61 8.00687 12.2134H6.50488V13.3835C6.88073 14.1366 7.45892 14.7701 8.17463 15.2129C8.89033 15.6558 9.71524 15.8905 10.5569 15.8907Z" fill="#34A853"/>
<path d="M8.00665 12.2194C7.81645 11.6567 7.81645 11.0471 8.00665 10.4844V9.31445H6.50466C6.18445 9.9459 6.01758 10.6439 6.01758 11.3519C6.01758 12.0599 6.18445 12.758 6.50466 13.3894L8.00665 12.2194Z" fill="#FBBC04"/>
<path d="M10.5569 8.60974C11.2039 8.59793 11.8293 8.84234 12.2969 9.2897L13.5969 7.99679C12.768 7.21885 11.6685 6.79452 10.5319 6.81387C9.69524 6.81806 8.87612 7.05385 8.16531 7.4951C7.45451 7.93635 6.87979 8.56581 6.50488 9.3137L8.00688 10.4846C8.1825 9.94474 8.52297 9.4735 8.98038 9.13718C9.4378 8.80087 9.98915 8.6164 10.5569 8.60974Z" fill="#EA4335"/>
</svg>
