<svg width="39" height="25" viewBox="0 0 39 25" fill="none" xmlns="http://www.w3.org/2000/svg">
<path fill-rule="evenodd" clip-rule="evenodd" d="M3.92773 0.169922H35.9277C36.7234 0.169922 37.4864 0.485992 38.0491 1.0486C38.6117 1.61121 38.9277 2.37427 38.9277 3.16992V21.1399C38.9277 21.9355 38.6117 22.6986 38.0491 23.2612C37.4864 23.8238 36.7234 24.1399 35.9277 24.1399H3.92773C3.13208 24.1399 2.36902 23.8238 1.80641 23.2612C1.2438 22.6986 0.927734 21.9355 0.927734 21.1399L0.927734 3.16992C0.927734 2.37427 1.2438 1.61121 1.80641 1.0486C2.36902 0.485992 3.13208 0.169922 3.92773 0.169922V0.169922Z" fill="#FA82A0"/>
<path fill-rule="evenodd" clip-rule="evenodd" d="M20.6778 15.3092C19.1378 15.3092 17.8278 14.3352 17.3518 12.9852C17.5967 13.24 17.9291 13.3923 18.282 13.4114C18.6349 13.4305 18.9818 13.315 19.2528 13.0882L19.3128 13.0382C19.5124 12.8711 19.6586 12.6491 19.7333 12.3997C19.808 12.1503 19.8078 11.8845 19.7328 11.6352C19.9528 11.6122 20.1728 11.5412 20.3728 11.4172C20.4658 11.4572 20.5628 11.4902 20.6668 11.5092L21.3198 11.6522C20.1528 12.2372 20.0618 13.3902 20.0598 13.4052C20.0563 13.4972 20.0891 13.5869 20.1513 13.6549C20.2134 13.7228 20.2998 13.7635 20.3918 13.7682H20.4138C20.5023 13.769 20.5878 13.7362 20.6532 13.6765C20.7185 13.6167 20.7587 13.5344 20.7658 13.4462C20.7698 13.3862 20.8958 11.9722 23.0018 12.0132H23.0078C23.051 12.0134 23.0937 12.0052 23.1338 11.9892C23.1438 11.9862 23.1518 11.9792 23.1618 11.9752C23.1902 11.9614 23.217 11.9447 23.2418 11.9252L23.2718 11.8912C23.2888 11.8717 23.3039 11.8506 23.3168 11.8282C23.3268 11.8122 23.3318 11.7962 23.3368 11.7802C23.3428 11.7672 23.3498 11.7572 23.3538 11.7442C23.3558 11.7342 23.3538 11.7222 23.3538 11.7102C23.3558 11.6982 23.3618 11.6882 23.3618 11.6752C23.3618 11.6652 23.3558 11.6552 23.3558 11.6432C23.3533 11.6202 23.3486 11.5974 23.3418 11.5752C23.3348 11.5552 23.3278 11.5352 23.3178 11.5152C23.3076 11.4955 23.2952 11.4771 23.2808 11.4602C23.2382 11.4065 23.1803 11.3671 23.1148 11.3472C23.1048 11.3442 23.0948 11.3372 23.0828 11.3332L20.8088 10.8372C20.7195 10.8213 20.6342 10.7879 20.558 10.7388C20.4817 10.6897 20.4159 10.626 20.3645 10.5513C20.313 10.4766 20.2769 10.3924 20.2583 10.3036C20.2396 10.2149 20.2388 10.1233 20.2558 10.0342L20.2858 9.8872C20.3248 9.71044 20.4302 9.5554 20.5801 9.454C20.7301 9.35261 20.9132 9.31259 21.0918 9.3422L24.1618 10.0842C24.4148 10.1342 24.7068 10.2762 24.7068 10.9542C24.7068 13.7842 22.6308 15.3122 20.6768 15.3122L20.6778 15.3092ZM15.8278 9.1992L15.8878 9.1492C16.0241 9.03569 16.1991 8.97955 16.3759 8.99261C16.5528 9.00567 16.7177 9.08691 16.8358 9.2192L18.9228 11.5892C19.1648 11.8622 19.1328 12.2792 18.8528 12.5142L18.7928 12.5642C18.6568 12.678 18.4819 12.7344 18.3051 12.7218C18.1282 12.7091 17.9632 12.6282 17.8448 12.4962L15.7578 10.1262C15.7004 10.0614 15.6565 9.98569 15.6289 9.90361C15.6013 9.82154 15.5904 9.73475 15.5969 9.64839C15.6035 9.56204 15.6273 9.47787 15.6669 9.40088C15.7066 9.32389 15.7613 9.25565 15.8278 9.2002V9.1992ZM17.1308 7.40119C17.4358 7.14519 17.8678 7.14519 18.0938 7.40119L19.7718 9.3132C19.6877 9.44763 19.6281 9.59593 19.5958 9.7512L19.5658 9.8972C19.4918 10.2692 19.5788 10.6372 19.7788 10.9292C19.5388 10.9942 19.2868 10.9412 19.1318 10.7652L16.9878 8.3332C16.7628 8.0762 16.8258 7.6582 17.1308 7.40119ZM17.9938 2.84118L17.9858 2.80118C17.9661 2.72199 17.9623 2.63967 17.9746 2.559C17.987 2.47833 18.0151 2.4009 18.0575 2.33117C18.0999 2.26144 18.1557 2.2008 18.2217 2.15274C18.2876 2.10469 18.3624 2.07017 18.4418 2.05118C18.6026 2.01108 18.7726 2.03552 18.9156 2.11925C19.0586 2.20298 19.1631 2.33935 19.2068 2.49918L20.5728 7.7452C20.5788 7.7672 20.5908 7.7852 20.5998 7.8052C20.6058 7.8182 20.6098 7.8312 20.6168 7.8432C20.6398 7.8782 20.6668 7.9102 20.7008 7.9332C20.7038 7.9372 20.7068 7.9372 20.7108 7.9392C20.7408 7.9622 20.7778 7.9792 20.8168 7.9892L20.8268 7.9952C20.8368 7.9972 20.8468 7.9952 20.8568 7.9952C20.8768 8.0002 20.8948 8.0052 20.9148 8.0052C20.9268 8.0052 20.9398 8.0022 20.9518 8.0012C20.9618 8.0012 20.9718 7.9992 20.9798 7.9982C20.9878 7.9962 20.9948 7.9982 21.0018 7.9952C21.0178 7.9912 21.0288 7.9812 21.0438 7.9752C21.0668 7.9652 21.0898 7.9582 21.1108 7.9452C21.1308 7.9312 21.1448 7.9152 21.1608 7.9012C21.1758 7.8852 21.1908 7.8712 21.2048 7.8512C21.2182 7.83135 21.229 7.80984 21.2368 7.7872C21.2428 7.7732 21.2528 7.7612 21.2568 7.7452L22.6238 2.49918C22.6558 2.37954 22.7223 2.27194 22.815 2.18978C22.9077 2.10761 23.0225 2.05449 23.1451 2.03701C23.2678 2.01954 23.3928 2.03849 23.5048 2.0915C23.6167 2.14451 23.7106 2.22925 23.7748 2.33518C23.8608 2.47718 23.8848 2.64218 23.8448 2.80118L23.8388 2.83118L22.8488 9.0532L21.2448 8.6662C20.9129 8.60403 20.5697 8.66218 20.2768 8.8302L18.6288 6.95019C18.5928 6.91019 18.5508 6.87819 18.5108 6.84319L17.9928 2.84018L17.9938 2.84118ZM24.3158 9.4072L23.5388 9.2202L24.5368 2.95019C24.6168 2.62018 24.5628 2.27418 24.3828 1.98018C24.1992 1.67999 23.9045 1.46438 23.5628 1.38018C22.8478 1.20518 22.1208 1.63018 21.9408 2.32818L20.9158 6.26119L19.8918 2.33118C19.7118 1.63118 18.9838 1.20618 18.2698 1.38118C17.5628 1.55718 17.1298 2.25618 17.2948 2.94719L17.7588 6.52919C17.3858 6.49919 16.9888 6.60919 16.6708 6.87919C16.2268 7.25219 16.0608 7.8192 16.1978 8.3092C15.9144 8.33235 15.6453 8.44314 15.4278 8.6262L15.3678 8.6762C15.2314 8.79 15.1192 8.92999 15.0378 9.08791C14.9564 9.24582 14.9075 9.41844 14.894 9.59558C14.8805 9.77271 14.9026 9.95075 14.9591 10.1192C15.0156 10.2876 15.1052 10.443 15.2228 10.5762L16.4568 11.9792C16.5168 14.2052 18.3838 15.9992 20.6768 15.9992C22.9728 15.9992 25.4138 14.2292 25.4138 10.9522C25.4138 9.7922 24.7138 9.4852 24.3138 9.4082L24.3158 9.4072ZM14.0018 21.3392H14.9998V16.5412H14.0018V21.3392ZM20.3198 18.5662V18.1362H19.3868V21.3392H20.3298V19.6612C20.3298 19.1742 20.8658 18.9612 21.2348 19.0682H21.2448V18.1382C20.8588 18.1382 20.5048 18.3082 20.3188 18.5662H20.3198ZM17.1098 20.5982C16.6218 20.5982 16.2248 20.2132 16.2248 19.7382C16.2248 19.2632 16.6218 18.8782 17.1098 18.8782C17.5998 18.8782 17.9948 19.2632 17.9948 19.7382C17.9948 20.2132 17.5988 20.5982 17.1098 20.5982ZM17.9858 18.3582C17.7093 18.1568 17.3759 18.0482 17.0338 18.0482C16.1238 18.0482 15.3838 18.8052 15.3838 19.7382C15.3838 20.6712 16.1238 21.4282 17.0338 21.4282C17.3888 21.4282 17.7168 21.3132 17.9858 21.1182V21.3382H18.8008V18.1382H17.9858V18.3582ZM23.5798 18.0502C23.2058 18.0502 22.8518 18.1682 22.6148 18.4962V18.1362H21.6828V21.3382H22.6268V19.5862C22.6268 19.0992 22.9448 18.8612 23.3268 18.8612C23.7398 18.8612 23.9768 19.1142 23.9768 19.5812V21.3392H24.9108V19.3032C24.9108 18.5572 24.3328 18.0502 23.5788 18.0502H23.5798ZM29.6548 20.2022C29.5767 20.2031 29.4995 20.2194 29.4276 20.2502C29.3558 20.2809 29.2907 20.3255 29.2361 20.3814C29.1815 20.4373 29.1385 20.5034 29.1094 20.576C29.0804 20.6485 29.0659 20.7261 29.0668 20.8042C29.0668 21.1372 29.3288 21.4062 29.6538 21.4062C29.9778 21.4062 30.2408 21.1362 30.2408 20.8042C30.2427 20.6466 30.1819 20.4947 30.0718 20.3818C29.9618 20.2689 29.8114 20.2043 29.6538 20.2022H29.6548ZM26.9698 20.5972C26.4798 20.5972 26.0848 20.2122 26.0848 19.7372C26.0848 19.2622 26.4808 18.8772 26.9698 18.8772C27.4578 18.8772 27.8548 19.2622 27.8548 19.7372C27.8548 20.2122 27.4578 20.5972 26.9698 20.5972ZM27.8458 18.3572C27.5689 18.1558 27.2352 18.0472 26.8928 18.0472C25.9828 18.0472 25.2428 18.8042 25.2428 19.7372C25.2428 20.6702 25.9828 21.4272 26.8928 21.4272C27.2478 21.4272 27.5768 21.3122 27.8458 21.1172V21.3372H28.6608V18.1372H27.8458V18.3572ZM29.2528 18.1942H29.3078C29.3428 18.1942 29.3578 18.2142 29.3578 18.2442C29.3578 18.2742 29.3478 18.2982 29.3078 18.2982H29.2528V18.1942ZM29.2528 18.3072H29.2988L29.3388 18.3972H29.3838L29.3418 18.3002C29.3688 18.2872 29.3818 18.2632 29.3818 18.2302C29.3818 18.1852 29.3488 18.1542 29.2998 18.1542H29.2138V18.3962H29.2558V18.3062L29.2528 18.3072ZM9.61279 21.3372H10.6528V16.5412H9.61279V21.3392V21.3372ZM13.3228 16.5422H12.3128C12.3061 17.0538 12.1617 17.554 11.8947 17.9904C11.6278 18.4269 11.2481 18.7833 10.7958 19.0222L12.3478 21.3382H13.6148L12.2048 19.2322C12.9137 18.5154 13.3148 17.5503 13.3228 16.5422ZM29.2878 18.0922C29.3878 18.0922 29.4678 18.1772 29.4678 18.2792C29.4678 18.3812 29.3878 18.4642 29.2878 18.4642C29.1898 18.4642 29.1098 18.3812 29.1098 18.2782C29.1098 18.1752 29.1898 18.0912 29.2878 18.0912V18.0922ZM29.2878 18.5092C29.3477 18.5079 29.4046 18.483 29.4462 18.4399C29.4877 18.3968 29.5106 18.3391 29.5098 18.2792C29.5098 18.1512 29.4098 18.0492 29.2878 18.0492C29.1658 18.0492 29.0678 18.1512 29.0678 18.2792C29.0678 18.4052 29.1658 18.5092 29.2878 18.5092Z" fill="white"/>
</svg>
