<svg width="39" height="25" viewBox="0 0 39 25" fill="none" xmlns="http://www.w3.org/2000/svg">
<path opacity="0.07" d="M35.9277 0.169434H3.92773C2.22773 0.169434 0.927734 1.46943 0.927734 3.16943V21.1694C0.927734 22.8694 2.32773 24.1694 3.92773 24.1694H35.9277C37.6277 24.1694 38.9277 22.8694 38.9277 21.1694V3.16943C38.9277 1.46943 37.5277 0.169434 35.9277 0.169434Z" fill="black"/>
<path d="M35.9277 1.1687C37.0277 1.1687 37.9277 2.0687 37.9277 3.1687V21.1687C37.9277 22.2687 37.0277 23.1687 35.9277 23.1687H3.92773C2.82773 23.1687 1.92773 22.2687 1.92773 21.1687V3.1687C1.92773 2.0687 2.82773 1.1687 3.92773 1.1687H35.9277Z" fill="white"/>
<path d="M15.9277 19.1694C19.7937 19.1694 22.9277 16.0354 22.9277 12.1694C22.9277 8.30344 19.7937 5.16943 15.9277 5.16943C12.0617 5.16943 8.92773 8.30344 8.92773 12.1694C8.92773 16.0354 12.0617 19.1694 15.9277 19.1694Z" fill="#EB001B"/>
<path d="M23.9277 19.1694C27.7937 19.1694 30.9277 16.0354 30.9277 12.1694C30.9277 8.30344 27.7937 5.16943 23.9277 5.16943C20.0617 5.16943 16.9277 8.30344 16.9277 12.1694C16.9277 16.0354 20.0617 19.1694 23.9277 19.1694Z" fill="#F79E1B"/>
<path d="M22.9277 12.1692C22.9277 9.76921 21.7277 7.66923 19.9277 6.46924C18.1277 7.76923 16.9277 9.86921 16.9277 12.1692C16.9277 14.4692 18.1277 16.6692 19.9277 17.8691C21.7277 16.6692 22.9277 14.5692 22.9277 12.1692Z" fill="#FF5F00"/>
</svg>
