<svg width="39" height="25" viewBox="0 0 39 25" fill="none" xmlns="http://www.w3.org/2000/svg">
<path opacity="0.07" d="M35.9277 0.169922H3.92773C2.22773 0.169922 0.927734 1.46992 0.927734 3.16992V21.1699C0.927734 22.8699 2.32773 24.1699 3.92773 24.1699H35.9277C37.6277 24.1699 38.9277 22.8699 38.9277 21.1699V3.16992C38.9277 1.46992 37.5277 0.169922 35.9277 0.169922Z" fill="black"/>
<path d="M35.9277 1.16943C37.0277 1.16943 37.9277 2.06943 37.9277 3.16943V21.1694C37.9277 22.2694 37.0277 23.1694 35.9277 23.1694H3.92773C2.82773 23.1694 1.92773 22.2694 1.92773 21.1694V3.16943C1.92773 2.06943 2.82773 1.16943 3.92773 1.16943H35.9277Z" fill="white"/>
<path d="M24.8277 8.46992C25.0277 7.46992 24.8277 6.76992 24.2277 6.16992C23.6277 5.46992 22.5277 5.16992 21.1277 5.16992H17.0277C16.7277 5.16992 16.5277 5.36992 16.4277 5.66992L14.9277 15.7699C14.9277 15.9699 15.0277 16.1699 15.2277 16.1699H17.9277L18.3277 12.7699L20.1277 10.5699L24.8277 8.46992Z" fill="#003087"/>
<path d="M24.8279 8.46973L24.6279 8.66973C24.1279 11.4697 22.4279 12.4697 20.0278 12.4697H18.9278C18.6278 12.4697 18.4278 12.6697 18.3278 12.9697L17.7278 16.8698L17.5278 17.8698C17.5278 18.0698 17.6278 18.2698 17.8278 18.2698H19.9278C20.2279 18.2698 20.4279 18.0698 20.4279 17.8698V17.7698L20.8279 15.3698V15.2698C20.8279 15.0698 21.1279 14.8698 21.3279 14.8698H21.6279C23.7279 14.8698 25.3279 14.0698 25.7279 11.6697C25.9279 10.6697 25.8279 9.86973 25.3279 9.26973C25.2279 8.76973 25.0279 8.56973 24.8279 8.46973Z" fill="#3086C8"/>
<path d="M24.2276 8.26973C24.1276 8.16973 24.0276 8.16973 23.9276 8.16973C23.8276 8.16973 23.7276 8.16973 23.6276 8.06973C23.3276 7.96973 22.9276 7.96973 22.5276 7.96973H19.5276C19.4276 7.96973 19.3276 7.96973 19.3276 8.06973C19.1276 8.16973 19.0276 8.26973 19.0276 8.46973L18.3276 12.8697V12.9697C18.3276 12.6697 18.6276 12.4697 18.9276 12.4697H20.2276C22.7276 12.4697 24.3276 11.4697 24.8276 8.66973V8.46973C24.7276 8.36973 24.5276 8.26973 24.3276 8.26973H24.2276Z" fill="#012169"/>
</svg>
