<svg width="39" height="25" viewBox="0 0 39 25" fill="none" xmlns="http://www.w3.org/2000/svg">
<g clip-path="url(#clip0)">
<path opacity="0.07" d="M35.9277 0.169922H3.92773C2.22773 0.169922 0.927734 1.46992 0.927734 3.16992V21.1699C0.927734 22.8699 2.32773 24.1699 3.92773 24.1699H35.9277C37.6277 24.1699 38.9277 22.8699 38.9277 21.1699V3.16992C38.9277 1.46992 37.5277 0.169922 35.9277 0.169922Z" fill="black"/>
<path d="M35.9277 1.16992C37.0277 1.16992 37.9277 2.06992 37.9277 3.16992V21.1699C37.9277 22.2699 37.0277 23.1699 35.9277 23.1699H3.92773C2.82773 23.1699 1.92773 22.2699 1.92773 21.1699V3.16992C1.92773 2.06992 2.82773 1.16992 3.92773 1.16992H35.9277Z" fill="white"/>
<path d="M15.9277 19.1699C19.7937 19.1699 22.9277 16.0359 22.9277 12.1699C22.9277 8.30393 19.7937 5.16992 15.9277 5.16992C12.0617 5.16992 8.92773 8.30393 8.92773 12.1699C8.92773 16.0359 12.0617 19.1699 15.9277 19.1699Z" fill="#EB001B"/>
<path d="M23.9277 19.1699C27.7937 19.1699 30.9277 16.0359 30.9277 12.1699C30.9277 8.30393 27.7937 5.16992 23.9277 5.16992C20.0617 5.16992 16.9277 8.30393 16.9277 12.1699C16.9277 16.0359 20.0617 19.1699 23.9277 19.1699Z" fill="#00A2E5"/>
<path d="M22.9277 12.1699C22.9277 9.76991 21.7277 7.66991 19.9277 6.46991C18.1277 7.76991 16.9277 9.86991 16.9277 12.1699C16.9277 14.4699 18.1277 16.6699 19.9277 17.8699C21.7277 16.6699 22.9277 14.5699 22.9277 12.1699Z" fill="#7375CF"/>
</g>
<defs>
<clipPath id="clip0">
<rect width="38" height="24" fill="white" transform="translate(0.927734 0.169922)"/>
</clipPath>
</defs>
</svg>
