<svg width="39" height="25" viewBox="0 0 39 25" fill="none" xmlns="http://www.w3.org/2000/svg">
<path d="M35.9277 0.169434H3.92773C2.27088 0.169434 0.927734 1.51258 0.927734 3.16943V21.1694C0.927734 22.8263 2.27088 24.1694 3.92773 24.1694H35.9277C37.5846 24.1694 38.9277 22.8263 38.9277 21.1694V3.16943C38.9277 1.51258 37.5846 0.169434 35.9277 0.169434Z" fill="#EB6F93"/>
<path fill-rule="evenodd" clip-rule="evenodd" d="M12.7316 21.624C12.1616 21.624 11.6696 21.36 11.3696 20.952L11.9336 20.3821C12.1016 20.598 12.3776 20.832 12.7436 20.832C13.0856 20.832 13.3196 20.628 13.3196 20.3041C13.3196 19.9561 13.0436 19.8721 12.6056 19.7461C11.8016 19.5121 11.4776 19.0921 11.4776 18.5521C11.4776 17.8741 11.9936 17.2861 12.8096 17.2861C13.3256 17.2861 13.7996 17.5261 14.0096 17.9941L13.3316 18.4201C13.2056 18.2101 13.0256 18.0721 12.7856 18.0721C12.5036 18.0721 12.3236 18.2641 12.3236 18.5101C12.3236 18.8041 12.5816 18.8941 12.9956 19.0141C13.6436 19.2061 14.1716 19.5301 14.1716 20.2741C14.1716 21.078 13.5476 21.624 12.7316 21.624ZM16.0296 21.624C15.1656 21.624 14.4636 20.934 14.4636 20.0941C14.4636 19.2541 15.1656 18.5641 16.0296 18.5641C16.8936 18.5641 17.5956 19.2541 17.5956 20.0941C17.5956 20.934 16.8936 21.624 16.0296 21.624ZM16.0296 20.856C16.4496 20.856 16.7796 20.526 16.7796 20.0941C16.7819 19.9944 16.7641 19.8953 16.7274 19.8026C16.6907 19.7099 16.6357 19.6255 16.5658 19.5545C16.4958 19.4834 16.4123 19.4271 16.3203 19.3889C16.2282 19.3507 16.1293 19.3314 16.0296 19.3321C15.6096 19.3321 15.2796 19.6621 15.2796 20.0941C15.2796 20.526 15.6096 20.856 16.0296 20.856ZM19.6156 18.1141C19.1596 18.0961 18.8296 18.3241 18.8296 18.8281V19.1401C19.0096 18.9481 19.2676 18.8521 19.5916 18.8521V19.6321C19.1416 19.6441 18.8296 19.9321 18.8296 20.3341V21.546H18.0136V18.7861C18.0136 18.0061 18.4996 17.3461 19.4956 17.3461H19.6156V18.1141ZM21.3956 21.624C20.5316 21.624 19.8296 20.934 19.8296 20.0941C19.8296 19.2541 20.5316 18.5641 21.3956 18.5641C22.2596 18.5641 22.9616 19.2541 22.9616 20.0941C22.9616 20.934 22.2596 21.624 21.3956 21.624ZM21.3956 20.856C21.8156 20.856 22.1456 20.526 22.1456 20.0941C22.1479 19.9944 22.1301 19.8953 22.0934 19.8026C22.0567 19.7099 22.0017 19.6255 21.9318 19.5545C21.8618 19.4834 21.7783 19.4271 21.6862 19.3889C21.5942 19.3507 21.4953 19.3314 21.3956 19.3321C20.9756 19.3321 20.6456 19.6621 20.6456 20.0941C20.6456 20.526 20.9756 20.856 21.3956 20.856ZM24.1956 18.9721C24.3576 18.7081 24.6216 18.5821 24.9936 18.5941V19.4701C24.5016 19.4701 24.2196 19.7401 24.2196 20.2201V21.546H23.4036V18.6421H24.1956V18.9721ZM26.2756 20.0641C26.2756 20.568 26.6056 20.796 27.0616 20.778V21.546H26.9416C25.9456 21.546 25.4596 20.886 25.4596 20.1061V17.7061H26.2756V18.1621C26.2756 18.5581 26.5936 18.8521 27.0376 18.8641V19.6441C26.7136 19.6441 26.4556 19.5481 26.2756 19.3561V20.0641ZM28.0376 21.594C27.893 21.5935 27.7544 21.5358 27.6521 21.4335C27.5498 21.3312 27.4921 21.1927 27.4916 21.048C27.4916 20.748 27.7376 20.502 28.0376 20.502C28.3376 20.502 28.5836 20.748 28.5836 21.048C28.5836 21.348 28.3376 21.594 28.0376 21.594ZM20.2656 14.8842C22.8156 14.8802 23.8936 13.4252 24.0896 11.0953C24.1456 10.4253 24.0336 10.0163 23.8316 9.80029C23.7887 9.75255 23.7367 9.71381 23.6786 9.68629C23.6595 9.67758 23.6393 9.67153 23.6186 9.66829L20.5956 8.96231C20.4061 8.91103 20.2072 8.90418 20.0146 8.94231C19.9041 8.96094 19.8014 9.01177 19.7196 9.08843C19.6378 9.16509 19.5804 9.26418 19.5546 9.3733C19.4536 9.71329 19.4606 9.97328 19.6756 10.1803C19.7316 10.2003 19.7766 10.2373 19.8076 10.2843C19.9576 10.3843 20.1696 10.4703 20.4556 10.5483L22.4486 10.9933C22.7786 11.0673 22.6786 11.5632 22.3446 11.5003C22.0555 11.456 21.7599 11.4846 21.4846 11.5832C20.9976 11.7662 20.6956 12.1842 20.6586 12.9602C20.6569 12.9942 20.6485 13.0276 20.6339 13.0583C20.6193 13.0891 20.5988 13.1167 20.5736 13.1395C20.5483 13.1624 20.5188 13.18 20.4867 13.1915C20.4547 13.2029 20.4206 13.2079 20.3866 13.2062C20.3526 13.2045 20.3193 13.1961 20.2885 13.1815C20.2577 13.1669 20.2301 13.1464 20.2073 13.1212C20.1612 13.0702 20.1372 13.0029 20.1406 12.9342C20.1826 12.0792 20.5166 11.5133 21.0556 11.2123L20.3316 11.0513C20.112 10.9941 19.8991 10.9137 19.6966 10.8113C19.6136 10.9393 19.5046 11.0513 19.3756 11.1413L19.3186 11.1783C19.2836 11.2023 19.2476 11.2233 19.2116 11.2433C19.4416 11.6772 19.3786 12.2262 19.0206 12.5982L18.9706 12.6522C18.7543 12.8732 18.4593 12.9995 18.1502 13.0036C17.841 13.0078 17.5427 12.8893 17.3206 12.6742L16.9326 12.2902C17.2506 13.8432 18.6346 14.8832 20.2526 14.8832H20.2656V14.8842ZM20.1756 15.4002C18.1256 15.3632 16.4026 13.8532 16.3476 11.7102L15.8766 11.2443C15.2946 10.6603 15.2006 9.85129 15.6686 9.3713L15.7186 9.3183C15.9186 9.1113 16.1826 8.99831 16.4516 8.98431C16.1266 8.34332 16.2276 7.64134 16.7336 7.29434L16.8056 7.24735C17.3556 6.92835 17.8336 7.05135 18.2426 7.45734L17.7726 3.59243C17.6146 2.92044 18.0266 2.18446 18.6546 2.05046C18.8137 2.01667 18.9779 2.01468 19.1377 2.0446C19.2976 2.07452 19.4499 2.13577 19.586 2.22481C19.7221 2.31385 19.8392 2.42893 19.9306 2.56342C20.022 2.69791 20.0859 2.84915 20.1186 3.00844L20.9196 6.42836L21.9346 2.95244C22.0224 2.62477 22.2362 2.34511 22.5294 2.17445C22.8226 2.00379 23.1713 1.95599 23.4996 2.04146C24.1166 2.22446 24.4886 2.85244 24.3536 3.47743L23.2356 9.04731L23.7156 9.1593C23.8556 9.1793 24.0376 9.2623 24.2096 9.4463C24.5226 9.78029 24.6736 10.3323 24.6056 11.1383C24.3886 13.7282 23.1126 15.4262 20.1926 15.4012L20.1756 15.4002ZM22.7316 8.93031L23.8456 3.37143C23.8839 3.19733 23.8555 3.01518 23.7658 2.86109C23.6762 2.70699 23.5319 2.5922 23.3616 2.53945C23.1657 2.49048 22.9583 2.52077 22.7846 2.62374C22.6109 2.72671 22.4847 2.89405 22.4336 3.08944L21.1416 7.51634C21.1286 7.55936 21.1046 7.59826 21.072 7.62924C21.0394 7.66023 20.9994 7.68223 20.9557 7.69311C20.9121 7.70399 20.8664 7.70338 20.8231 7.69132C20.7798 7.67927 20.7404 7.65619 20.7086 7.62434C20.6741 7.59039 20.6499 7.54742 20.6386 7.50034L19.6126 3.11644C19.5944 3.02343 19.5578 2.93499 19.5051 2.85628C19.4523 2.77757 19.3843 2.71017 19.3052 2.65803C19.226 2.60589 19.1373 2.57005 19.0441 2.55261C18.951 2.53517 18.8553 2.53647 18.7626 2.55645C18.4286 2.62645 18.1786 3.07944 18.2796 3.48243L18.2846 3.51343L18.8676 8.30332L19.2376 8.85531C19.3976 8.63531 19.6276 8.49732 19.9016 8.43632C20.1744 8.37947 20.4567 8.38769 20.7256 8.46032L22.7316 8.92831V8.93031ZM19.0056 9.4403L18.4336 8.58832C18.4112 8.5655 18.3932 8.53871 18.3806 8.50932L18.1186 8.11933C17.7846 7.63334 17.4606 7.46534 17.0786 7.68634L17.0236 7.72333C16.7266 7.92733 16.6856 8.42132 16.9956 8.89031L18.1276 10.5753C18.2246 10.7175 18.3739 10.8155 18.5429 10.8479C18.7119 10.8804 18.8869 10.8445 19.0296 10.7483L19.0856 10.7113C19.1633 10.6578 19.2282 10.5878 19.2756 10.5063C18.9936 10.2133 18.9256 9.85129 19.0056 9.4393V9.4403ZM18.6816 11.3773C18.4882 11.3798 18.2972 11.3344 18.1257 11.245C17.9541 11.1557 17.8074 11.0252 17.6986 10.8653L16.8566 9.61229C16.7426 9.52947 16.6025 9.49045 16.462 9.50239C16.3216 9.51432 16.1901 9.57641 16.0916 9.67729L16.0416 9.73029C15.7896 9.98928 15.8456 10.4803 16.2416 10.8773L17.6816 12.3042C17.8049 12.4233 17.9702 12.4888 18.1416 12.4865C18.313 12.4843 18.4765 12.4144 18.5966 12.2922L18.6466 12.2402C18.7571 12.1256 18.8217 11.9745 18.8282 11.8154C18.8346 11.6563 18.7825 11.5004 18.6816 11.3773Z" fill="white"/>
</svg>
