<svg width="39" height="25" viewBox="0 0 39 25" fill="none" xmlns="http://www.w3.org/2000/svg">
<path d="M36.6397 24.1699H3.21573C2.61148 24.1723 2.031 23.9346 1.60195 23.5091C1.17289 23.0836 0.930381 22.5052 0.927734 21.9009L0.927734 2.43894C0.929045 2.13966 0.989291 1.84357 1.10503 1.56757C1.22078 1.29157 1.38975 1.04107 1.6023 0.830373C1.81486 0.619677 2.06683 0.45291 2.34383 0.339594C2.62084 0.226278 2.91745 0.168632 3.21673 0.169949H36.6377C36.9371 0.168501 37.2338 0.226049 37.5109 0.339306C37.7881 0.452563 38.0401 0.619309 38.2528 0.830019C38.4655 1.04073 38.6345 1.29127 38.7503 1.56734C38.8661 1.8434 38.9264 2.13958 38.9277 2.43894V21.9009C38.9251 22.5052 38.6826 23.0836 38.2535 23.5091C37.8245 23.9346 37.244 24.1723 36.6397 24.1699Z" fill="#5C6AC4"/>
<path d="M36.6398 23.6697H3.21574C2.74409 23.672 2.29079 23.487 1.9555 23.1553C1.62021 22.8236 1.43038 22.3723 1.42773 21.9006V2.43847C1.43064 1.96673 1.6207 1.51543 1.95615 1.18373C2.29159 0.852034 2.74499 0.667062 3.21674 0.669457H36.6378C37.1095 0.667062 37.5629 0.852034 37.8983 1.18373C38.2338 1.51543 38.4238 1.96673 38.4268 2.43847V21.9006C38.4268 22.8736 37.6298 23.6697 36.6388 23.6697H36.6398Z" stroke="#142688" stroke-opacity="0.2"/>
<path d="M13.8197 8.10371L12.9847 8.04071L12.3707 7.4307C12.3561 7.41636 12.3383 7.40573 12.3187 7.3997L11.9237 16.5199L15.0417 15.8419L13.9097 8.18772C13.9063 8.16568 13.8955 8.14545 13.8792 8.13022C13.8629 8.115 13.842 8.10567 13.8197 8.10371ZM11.0097 7.75371V7.64571C11.0097 7.3157 10.9647 7.04869 10.8897 6.83769C11.1867 6.87469 11.3837 7.2117 11.5097 7.59771C11.3617 7.64471 11.1927 7.69771 11.0097 7.75371ZM10.3567 11.0488C10.3567 11.0488 10.0107 10.8638 9.58673 10.8638C8.96473 10.8638 8.93373 11.2538 8.93373 11.3518C8.93373 11.8888 10.3317 12.0938 10.3317 13.3518C10.3317 14.3398 9.70473 14.9768 8.85873 14.9768C7.84473 14.9768 7.32473 14.3448 7.32473 14.3448L7.59673 13.4478C7.59673 13.4478 8.13073 13.9048 8.58073 13.9048C8.63445 13.907 8.68805 13.8982 8.73828 13.8791C8.78851 13.8599 8.83433 13.8307 8.87295 13.7933C8.91156 13.7559 8.94218 13.7111 8.96295 13.6615C8.98371 13.6119 8.99418 13.5586 8.99373 13.5048C8.99373 12.8048 7.84573 12.7738 7.84573 11.6228C7.84573 10.6558 8.54073 9.71875 9.94373 9.71875C10.4837 9.71875 10.7507 9.87375 10.7507 9.87375L10.3567 11.0488ZM10.1267 6.52868C10.1882 6.52971 10.2479 6.54961 10.2977 6.58569C9.86973 6.78769 9.40973 7.2957 9.21673 8.30872L8.39973 8.56272C8.62673 7.78871 9.16573 6.52768 10.1267 6.52768V6.52868ZM10.6597 7.80471V7.86271L9.62573 8.18272C9.82473 7.4147 10.1977 7.04269 10.5237 6.90269C10.6057 7.1097 10.6597 7.4057 10.6597 7.80471ZM12.1467 7.4027L11.8367 7.4977C11.6517 6.96569 11.3267 6.47768 10.7517 6.47768C10.7357 6.47768 10.7197 6.47768 10.7037 6.47968C10.5407 6.26368 10.3387 6.16968 10.1637 6.16968C8.82673 6.16968 8.18873 7.84071 7.98773 8.68973L7.05273 8.97973C6.76273 9.07173 6.75273 9.07973 6.71573 9.35374C6.68673 9.55974 5.92773 15.4279 5.92773 15.4279L11.7827 16.5249L12.1777 7.3947C12.1673 7.39685 12.1569 7.39952 12.1467 7.4027ZM19.5407 11.7508C19.6837 11.7728 19.8267 11.7948 20.0467 11.7948C21.0167 11.7948 21.5447 11.0678 21.5447 10.3518C21.5447 9.70175 21.1147 9.43774 20.5207 9.43774C20.2787 9.43774 20.0907 9.44774 19.9707 9.48174L19.5407 11.7508ZM18.6927 8.39072C19.1547 8.28072 19.8497 8.21472 20.4887 8.21472C21.1047 8.21472 21.8647 8.32472 22.3827 8.73273C22.8227 9.07373 23.0767 9.60274 23.0767 10.2308C23.0814 10.6367 22.9947 11.0386 22.8232 11.4066C22.6516 11.7745 22.3996 12.0993 22.0857 12.3568C21.5127 12.8188 20.6857 13.0288 19.8607 13.0288C19.6507 13.0288 19.4527 13.0068 19.3097 12.9948L18.7917 15.6829H17.3047L18.6927 8.39072ZM26.4077 11.3758C26.2819 11.3444 26.1524 11.3296 26.0227 11.3318C25.0317 11.3318 24.3597 12.7528 24.3597 13.6898C24.3597 14.2068 24.5247 14.5598 24.9327 14.5598C25.3837 14.5598 25.9017 13.9978 26.1327 12.7748L26.4087 11.3758H26.4077ZM25.9347 15.6839C25.9447 15.3749 25.9787 15.0338 26.0007 14.6698H25.9667C25.4937 15.5069 24.8547 15.7939 24.2927 15.7939C23.3787 15.7939 22.7947 15.0668 22.7947 13.9978C22.7947 12.2358 23.8847 10.1758 26.4407 10.1758C27.0046 10.1807 27.5649 10.2659 28.1047 10.4288L27.5317 13.3038C27.3997 13.9868 27.2997 15.0338 27.3117 15.6839H25.9347ZM30.2917 10.4368L30.5337 12.7208C30.6007 13.2608 30.6437 13.6458 30.6657 13.9978H30.6887C30.8087 13.6348 30.9197 13.2928 31.1397 12.7088L32.0657 10.4368H33.6517L31.7897 14.2848C31.1297 15.6509 30.4897 16.6529 29.7957 17.3029C29.2557 17.8099 28.6177 18.0629 28.3087 18.1289L27.8907 16.8399C28.1966 16.7395 28.4861 16.5946 28.7497 16.4099C29.0943 16.1758 29.3776 15.8623 29.5757 15.4959C29.6197 15.4189 29.6307 15.3529 29.6087 15.2429L28.7657 10.4368H30.2917Z" fill="white"/>
</svg>
