<svg width="39" height="25" viewBox="0 0 39 25" fill="none" xmlns="http://www.w3.org/2000/svg">
<path opacity="0.07" d="M35.9277 0.169434H3.92773C2.22773 0.169434 0.927734 1.46943 0.927734 3.16943V21.1694C0.927734 22.8694 2.32773 24.1694 3.92773 24.1694H35.9277C37.6277 24.1694 38.9277 22.8694 38.9277 21.1694V3.16943C38.9277 1.46943 37.5277 0.169434 35.9277 0.169434Z" fill="black"/>
<path d="M35.9277 1.1687C37.0277 1.1687 37.9277 2.0687 37.9277 3.1687V21.1687C37.9277 22.2687 37.0277 23.1687 35.9277 23.1687H3.92773C2.82773 23.1687 1.92773 22.2687 1.92773 21.1687V3.1687C1.92773 2.0687 2.82773 1.1687 3.92773 1.1687H35.9277Z" fill="white"/>
<path d="M29.2277 10.2695H28.9277C28.5277 11.2695 28.2277 11.7695 27.9277 13.2696H29.8277C29.5277 11.7695 29.5277 11.0695 29.2277 10.2695ZM32.1277 16.1697H30.4277C30.3277 16.1697 30.3277 16.1697 30.2277 16.0697L30.0277 15.1696L29.9277 14.9696H27.5277C27.4277 14.9696 27.3277 14.9696 27.3277 15.1696L27.0277 16.0697C27.0277 16.1697 26.9277 16.1697 26.9277 16.1697H24.8277L25.0277 15.6697L27.9277 8.86945C27.9277 8.36944 28.2277 8.16943 28.7277 8.16943H30.2277C30.3277 8.16943 30.4277 8.16943 30.4277 8.36944L31.8277 14.8696C31.9277 15.2696 32.0277 15.5697 32.0277 15.9697C32.1277 16.0697 32.1277 16.0697 32.1277 16.1697ZM18.7277 15.8697L19.1277 14.0696C19.2277 14.0696 19.3277 14.1696 19.3277 14.1696C20.0277 14.4696 20.7277 14.6696 21.4277 14.5696C21.6277 14.5696 21.9277 14.4696 22.1277 14.3696C22.6277 14.1696 22.6277 13.6696 22.2277 13.2696C22.0277 13.0696 21.7277 12.9696 21.4277 12.7696C21.0277 12.5696 20.6277 12.3696 20.3277 12.0696C19.1277 11.0695 19.5277 9.66948 20.2277 8.96946C20.8277 8.56945 21.1277 8.16943 21.9277 8.16943C23.1277 8.16943 24.4277 8.16943 25.0277 8.36944H25.1277C25.0277 8.96946 24.9277 9.46947 24.7277 10.0695C24.2277 9.86949 23.7277 9.66948 23.2277 9.66948C22.9277 9.66948 22.6277 9.66948 22.3277 9.76948C22.1277 9.76948 22.0277 9.86949 21.9277 9.96949C21.7277 10.1695 21.7277 10.4695 21.9277 10.6695L22.4277 11.0695C22.8277 11.2695 23.2277 11.4695 23.5277 11.6695C24.0277 11.9695 24.5277 12.4696 24.6277 13.0696C24.8277 13.9696 24.5277 14.7696 23.7277 15.3697C23.2277 15.7697 23.0277 15.9697 22.3277 15.9697C20.9277 15.9697 19.8277 16.0697 18.9277 15.7697C18.8277 15.9697 18.8277 15.9697 18.7277 15.8697ZM15.2277 16.1697C15.3277 15.4697 15.3277 15.4697 15.4277 15.1696C15.9277 12.9696 16.4277 10.6695 16.8277 8.46944C16.9277 8.26944 16.9277 8.16943 17.1277 8.16943H18.9277C18.7277 9.36947 18.5277 10.2695 18.2277 11.3695C17.9277 12.8696 17.6277 14.3696 17.2277 15.8697C17.2277 16.0697 17.1277 16.0697 16.9277 16.0697L15.2277 16.1697ZM5.92773 8.36944C5.92773 8.26944 6.12773 8.16943 6.22773 8.16943H9.62774C10.1277 8.16943 10.5277 8.46944 10.6277 8.96946L11.5277 13.3696C11.5277 13.4696 11.5277 13.4696 11.6277 13.5696C11.6277 13.4696 11.7277 13.4696 11.7277 13.4696L13.8277 8.36944C13.7277 8.26944 13.8277 8.16943 13.9277 8.16943H16.0277C16.0277 8.26944 16.0277 8.26944 15.9277 8.36944L12.8277 15.6697C12.7277 15.8697 12.7277 15.9697 12.6277 16.0697C12.5277 16.1697 12.3277 16.0697 12.1277 16.0697H10.6277C10.5277 16.0697 10.4277 16.0697 10.4277 15.8697L8.82774 9.66948C8.62774 9.46947 8.32774 9.16946 7.92774 9.06946C7.32774 8.76945 6.22773 8.56945 6.02773 8.56945L5.92773 8.36944Z" fill="#142688"/>
</svg>
